<svg width="300" height="200" viewBox="0 0 300 200" fill="none" xmlns="http://www.w3.org/2000/svg">
<rect width="300" height="200" fill="#DBEAFE"/>
<path fill-rule="evenodd" clip-rule="evenodd" d="M137.3 51.1407C136.26 56.145 138.699 63.2506 143.747 67.4079C146.412 69.6022 146.793 73.5411 144.599 76.2056C142.404 78.8702 138.466 79.2514 135.801 77.057C127.568 70.2768 122.976 58.6325 125.061 48.5977C126.153 43.3449 129.127 38.4436 134.391 35.3246C139.546 32.2704 146.182 31.3434 153.939 32.4516C157.356 32.9397 159.731 36.1055 159.243 39.5226C158.755 42.9397 155.589 45.3141 152.172 44.8259C146.257 43.9809 142.737 44.9094 140.763 46.0788C138.898 47.1835 137.771 48.874 137.3 51.1407Z" fill="#006096" stroke="#00283F" stroke-width="3.125" stroke-linecap="round"/>
<path fill-rule="evenodd" clip-rule="evenodd" d="M168.537 137.79C171.595 136.188 175.372 137.368 176.974 140.426L182.984 151.9L187.944 149.993C191.166 148.754 194.782 150.361 196.021 153.583C197.26 156.804 195.653 160.42 192.431 161.66L183.574 165.066C179.871 166.49 175.69 164.913 173.849 161.399L165.901 146.226C164.299 143.169 165.48 139.391 168.537 137.79Z" fill="#FFDE31" stroke="#BCA428" stroke-width="3.125" stroke-linecap="round"/>
<path d="M213.07 81.7784C201.176 96.7115 187.025 102.52 176.118 104.084C171.011 104.816 166.772 110.737 169.784 114.926C175.709 123.162 186.049 131.818 203.899 128.56C229.097 123.962 228.393 99.0322 223.263 82.7882C221.827 78.2394 216.042 78.0471 213.07 81.7784Z" fill="#006096" stroke="#00283F" stroke-width="3.125" stroke-linecap="round"/>
<rect x="101.125" y="54.2637" width="98.4375" height="98.4375" rx="49.2188" fill="#01BBE4" stroke="#00283F" stroke-width="3.125"/>
<circle cx="144.875" cy="86.6875" r="12.5" fill="white" stroke="#00283F" stroke-width="3.125"/>
<circle cx="188.625" cy="82" r="12.5" fill="white" stroke="#00283F" stroke-width="3.125"/>
<path d="M86.0553 78.6534C97.9494 93.5865 112.1 99.3947 123.007 100.959C128.114 101.691 132.353 107.612 129.341 111.801C123.416 120.037 113.076 128.693 95.2262 125.435C70.0282 120.837 70.7322 95.9072 75.8617 79.6632C77.2981 75.1144 83.0834 74.9221 86.0553 78.6534Z" fill="#006096" stroke="#00283F" stroke-width="3.125" stroke-linecap="round"/>
<path fill-rule="evenodd" clip-rule="evenodd" d="M186.23 91.0484L186.67 91.1411C190.339 91.9123 192.687 95.5114 191.916 99.1799C191.145 102.848 187.546 105.197 183.877 104.426L167.037 100.886C164.843 100.424 163.121 98.9519 162.256 97.058C160.553 93.8779 161.639 89.8893 164.77 88.0251L179.557 79.2222C182.778 77.3046 186.943 78.3613 188.861 81.5824C190.779 84.8035 189.722 88.9693 186.501 90.8869L186.23 91.0484Z" fill="#FFDE31"/>
<path d="M186.23 91.0484L185.43 89.7058L181.99 91.7538L185.908 92.5775L186.23 91.0484ZM186.67 91.1411L186.992 89.612L186.992 89.612L186.67 91.1411ZM183.877 104.426L184.199 102.897L184.199 102.897L183.877 104.426ZM167.037 100.886L167.358 99.3565L167.358 99.3565L167.037 100.886ZM162.256 97.058L163.677 96.4089L163.657 96.3638L163.633 96.3202L162.256 97.058ZM164.77 88.0251L165.569 89.3677L164.77 88.0251ZM179.557 79.2222L178.757 77.8796L178.757 77.8796L179.557 79.2222ZM188.861 81.5824L187.518 82.3817L187.518 82.3817L188.861 81.5824ZM186.501 90.8869L187.3 92.2295L187.3 92.2295L186.501 90.8869ZM185.908 92.5775L186.349 92.6701L186.992 89.612L186.551 89.5194L185.908 92.5775ZM186.349 92.6701C189.173 93.2638 190.981 96.0344 190.387 98.8585L193.445 99.5014C194.394 94.9884 191.505 90.5607 186.992 89.612L186.349 92.6701ZM190.387 98.8585C189.793 101.683 187.023 103.491 184.199 102.897L183.556 105.955C188.069 106.904 192.496 104.014 193.445 99.5014L190.387 98.8585ZM184.199 102.897L167.358 99.3565L166.715 102.415L183.556 105.955L184.199 102.897ZM167.358 99.3565C165.67 99.0017 164.345 97.8709 163.677 96.4089L160.835 97.707C161.897 100.033 164.015 101.847 166.715 102.415L167.358 99.3565ZM163.633 96.3202C162.323 93.8732 163.159 90.8025 165.569 89.3677L163.971 86.6825C160.118 88.976 158.783 93.8825 160.879 97.7958L163.633 96.3202ZM165.569 89.3677L180.356 80.5648L178.757 77.8796L163.971 86.6825L165.569 89.3677ZM180.356 80.5648C182.835 79.0886 186.042 79.902 187.518 82.3817L190.204 80.7831C187.845 76.8205 182.72 75.5205 178.757 77.8796L180.356 80.5648ZM187.518 82.3817C188.995 84.8613 188.181 88.0681 185.702 89.5443L187.3 92.2295C191.263 89.8704 192.563 84.7457 190.204 80.7831L187.518 82.3817ZM185.702 89.5443L185.43 89.7058L187.029 92.391L187.3 92.2295L185.702 89.5443Z" fill="#BCA428"/>
<path fill-rule="evenodd" clip-rule="evenodd" d="M134.151 134.209C137.46 135.189 139.348 138.667 138.367 141.977L132.518 161.719C131.38 165.558 127.524 167.916 123.588 167.178L112.473 165.094C109.081 164.458 106.846 161.192 107.482 157.799C108.118 154.407 111.384 152.172 114.777 152.808L121.734 154.113L126.382 138.426C127.363 135.116 130.841 133.228 134.151 134.209Z" fill="#FFDE31" stroke="#BCA428" stroke-width="3.125" stroke-linecap="round"/>
</svg>
