<svg width="300" height="200" viewBox="0 0 300 200" fill="none" xmlns="http://www.w3.org/2000/svg">
<rect width="300" height="200" fill="#F3F4F6"/>
<rect width="300" height="200" fill="url(#paint0_linear_104_2)"/>
<path d="M59 85.3195H78.809V90.9107H71.6602V114.713H65.8692V90.9107H59V85.3195Z" fill="white"/>
<path d="M81.5865 100.056C81.5865 98.0329 81.9726 96.1159 82.7447 94.3054C83.5168 92.4949 84.5818 90.8974 85.9397 89.5129C87.3242 88.1018 88.9217 86.9969 90.7322 86.1981C92.5427 85.3994 94.4863 85 96.563 85C98.6132 85 100.543 85.3994 102.354 86.1981C104.164 86.9969 105.762 88.1018 107.146 89.5129C108.558 90.8974 109.649 92.4949 110.421 94.3054C111.22 96.1159 111.619 98.0329 111.619 100.056C111.619 102.133 111.22 104.077 110.421 105.887C109.649 107.698 108.558 109.295 107.146 110.68C105.762 112.038 104.164 113.103 102.354 113.875C100.543 114.647 98.6132 115.033 96.563 115.033C94.4863 115.033 92.5427 114.647 90.7322 113.875C88.9217 113.103 87.3242 112.038 85.9397 110.68C84.5818 109.295 83.5168 107.698 82.7447 105.887C81.9726 104.077 81.5865 102.133 81.5865 100.056ZM87.5771 100.056C87.5771 101.361 87.8034 102.586 88.256 103.731C88.7353 104.849 89.3876 105.847 90.213 106.726C91.065 107.578 92.0368 108.244 93.1284 108.723C94.2467 109.202 95.4581 109.442 96.7627 109.442C98.0141 109.442 99.1723 109.202 100.237 108.723C101.329 108.244 102.274 107.578 103.073 106.726C103.872 105.847 104.497 104.849 104.95 103.731C105.403 102.586 105.629 101.361 105.629 100.056C105.629 98.7252 105.389 97.4871 104.91 96.3422C104.457 95.1974 103.818 94.1989 102.993 93.3469C102.194 92.4683 101.249 91.7894 100.157 91.3101C99.0658 90.8309 97.881 90.5912 96.603 90.5912C95.325 90.5912 94.1402 90.8309 93.0485 91.3101C91.9569 91.7894 90.9984 92.4683 90.173 93.3469C89.3477 94.1989 88.7087 95.1974 88.256 96.3422C87.8034 97.4871 87.5771 98.7252 87.5771 100.056Z" fill="white"/>
<path d="M117.393 114.713V85.3195H126.179C129.135 85.3195 131.651 85.7588 133.727 86.6374C135.804 87.5161 137.468 88.6876 138.719 90.1519C139.997 91.6163 140.929 93.2537 141.515 95.0642C142.101 96.8747 142.394 98.6985 142.394 100.536C142.394 102.719 141.994 104.689 141.196 106.446C140.423 108.177 139.358 109.668 138.001 110.919C136.643 112.144 135.072 113.089 133.288 113.755C131.504 114.394 129.614 114.713 127.617 114.713H117.393ZM123.184 109.122H126.618C128.083 109.122 129.414 108.936 130.612 108.563C131.81 108.164 132.835 107.591 133.687 106.846C134.566 106.1 135.232 105.168 135.684 104.05C136.164 102.905 136.403 101.601 136.403 100.136C136.403 98.2193 136.084 96.6617 135.445 95.4636C134.832 94.2389 134.06 93.2937 133.128 92.628C132.223 91.9624 131.291 91.5098 130.333 91.2702C129.374 91.0039 128.562 90.8708 127.896 90.8708H123.184V109.122Z" fill="white"/>
<path d="M146.407 100.056C146.407 98.0329 146.793 96.1159 147.565 94.3054C148.337 92.4949 149.402 90.8974 150.76 89.5129C152.145 88.1018 153.742 86.9969 155.553 86.1981C157.363 85.3994 159.307 85 161.383 85C163.433 85 165.364 85.3994 167.174 86.1981C168.985 86.9969 170.582 88.1018 171.967 89.5129C173.378 90.8974 174.47 92.4949 175.242 94.3054C176.04 96.1159 176.44 98.0329 176.44 100.056C176.44 102.133 176.04 104.077 175.242 105.887C174.47 107.698 173.378 109.295 171.967 110.68C170.582 112.038 168.985 113.103 167.174 113.875C165.364 114.647 163.433 115.033 161.383 115.033C159.307 115.033 157.363 114.647 155.553 113.875C153.742 113.103 152.145 112.038 150.76 110.68C149.402 109.295 148.337 107.698 147.565 105.887C146.793 104.077 146.407 102.133 146.407 100.056ZM152.397 100.056C152.397 101.361 152.624 102.586 153.076 103.731C153.556 104.849 154.208 105.847 155.033 106.726C155.885 107.578 156.857 108.244 157.949 108.723C159.067 109.202 160.278 109.442 161.583 109.442C162.834 109.442 163.993 109.202 165.058 108.723C166.149 108.244 167.094 107.578 167.893 106.726C168.692 105.847 169.318 104.849 169.77 103.731C170.223 102.586 170.449 101.361 170.449 100.056C170.449 98.7252 170.21 97.4871 169.73 96.3422C169.278 95.1974 168.639 94.1989 167.813 93.3469C167.015 92.4683 166.069 91.7894 164.978 91.3101C163.886 90.8309 162.701 90.5912 161.423 90.5912C160.145 90.5912 158.961 90.8309 157.869 91.3101C156.777 91.7894 155.819 92.4683 154.993 93.3469C154.168 94.1989 153.529 95.1974 153.076 96.3422C152.624 97.4871 152.397 98.7252 152.397 100.056Z" fill="white"/>
<path d="M213 96.22C215.06 96.22 216.74 97.9 216.74 100C216.74 102 215.06 103.7 213 103.7C210.94 103.7 209.26 102 209.26 100C209.26 97.9 210.94 96.22 213 96.22ZM203.74 116C205 116.76 207.76 115.6 210.94 112.6C209.9 111.42 208.88 110.14 207.92 108.8C206.308 108.646 204.706 108.405 203.12 108.08C202.1 112.36 202.48 115.3 203.74 116V116ZM205.16 104.52L204.58 103.5C204.36 104.08 204.14 104.66 204 105.22C204.54 105.34 205.14 105.44 205.76 105.54L205.16 104.52ZM218.24 103L219.86 100L218.24 97C217.64 95.94 217 95 216.42 94.06C215.34 94 214.2 94 213 94C211.8 94 210.66 94 209.58 94.06C209 95 208.36 95.94 207.76 97L206.14 100L207.76 103C208.36 104.06 209 105 209.58 105.94C210.66 106 211.8 106 213 106C214.2 106 215.34 106 216.42 105.94C217 105 217.64 104.06 218.24 103V103ZM213 89.56C212.62 90 212.22 90.46 211.82 91H214.18C213.78 90.46 213.38 90 213 89.56ZM213 110.44C213.38 110 213.78 109.54 214.18 109H211.82C212.22 109.54 212.62 110 213 110.44ZM222.24 84C221 83.24 218.24 84.4 215.06 87.4C216.1 88.58 217.12 89.86 218.08 91.2C219.72 91.36 221.34 91.6 222.88 91.92C223.9 87.64 223.52 84.7 222.24 84ZM220.84 95.48L221.42 96.5C221.64 95.92 221.86 95.34 222 94.78C221.46 94.66 220.86 94.56 220.24 94.46L220.84 95.48V95.48ZM223.74 81.38C226.68 83.06 227 87.48 225.76 92.64C230.84 94.14 234.5 96.62 234.5 100C234.5 103.38 230.84 105.86 225.76 107.36C227 112.52 226.68 116.94 223.74 118.62C220.82 120.3 216.84 118.38 213 114.72C209.16 118.38 205.18 120.3 202.24 118.62C199.32 116.94 199 112.52 200.24 107.36C195.16 105.86 191.5 103.38 191.5 100C191.5 96.62 195.16 94.14 200.24 92.64C199 87.48 199.32 83.06 202.24 81.38C205.18 79.7 209.16 81.62 213 85.28C216.84 81.62 220.82 79.7 223.74 81.38ZM223.16 100C223.84 101.5 224.44 103 224.94 104.52C229.14 103.26 231.5 101.46 231.5 100C231.5 98.54 229.14 96.74 224.94 95.48C224.44 97 223.84 98.5 223.16 100ZM202.84 100C202.16 98.5 201.56 97 201.06 95.48C196.86 96.74 194.5 98.54 194.5 100C194.5 101.46 196.86 103.26 201.06 104.52C201.56 103 202.16 101.5 202.84 100ZM220.84 104.52L220.24 105.54C220.86 105.44 221.46 105.34 222 105.22C221.86 104.66 221.64 104.08 221.42 103.5L220.84 104.52V104.52ZM215.06 112.6C218.24 115.6 221 116.76 222.24 116C223.52 115.3 223.9 112.36 222.88 108.08C221.34 108.4 219.72 108.64 218.08 108.8C217.12 110.14 216.1 111.42 215.06 112.6V112.6ZM205.16 95.48L205.76 94.46C205.14 94.56 204.54 94.66 204 94.78C204.14 95.34 204.36 95.92 204.58 96.5L205.16 95.48ZM210.94 87.4C207.76 84.4 205 83.24 203.74 84C202.48 84.7 202.1 87.64 203.12 91.92C204.706 91.5946 206.308 91.3542 207.92 91.2C208.88 89.86 209.9 88.58 210.94 87.4V87.4Z" fill="white"/>
<defs>
<linearGradient id="paint0_linear_104_2" x1="300" y1="200" x2="9.93411e-07" y2="-1.49012e-06" gradientUnits="userSpaceOnUse">
<stop stop-color="#791C71"/>
<stop offset="1" stop-color="#2E32C3"/>
</linearGradient>
</defs>
</svg>
